<mxfile host="app.diagrams.net" agent="Mozilla/5.0 (Windows NT 10.0; Win64; x64) AppleWebKit/537.36 (KHTML, like Gecko) Chrome/139.0.0.0 Safari/537.36" version="28.1.0">
  <diagram name="第 1 页" id="81J3v8VgtAfDuoiSXYik">
    <mxGraphModel dx="1426" dy="871" grid="1" gridSize="10" guides="1" tooltips="1" connect="1" arrows="1" fold="1" page="1" pageScale="1" pageWidth="20000" pageHeight="200000" math="0" shadow="0">
      <root>
        <mxCell id="0" />
        <mxCell id="1" parent="0" />
        <mxCell id="ZeDddJGaVsbgRb_YvKpA-3" value="" style="edgeStyle=orthogonalEdgeStyle;rounded=0;orthogonalLoop=1;jettySize=auto;html=1;" edge="1" parent="1" source="ZeDddJGaVsbgRb_YvKpA-1" target="ZeDddJGaVsbgRb_YvKpA-2">
          <mxGeometry relative="1" as="geometry" />
        </mxCell>
        <mxCell id="ZeDddJGaVsbgRb_YvKpA-1" value="开始" style="ellipse;whiteSpace=wrap;html=1;aspect=fixed;" vertex="1" parent="1">
          <mxGeometry x="190" y="430" width="80" height="80" as="geometry" />
        </mxCell>
        <mxCell id="ZeDddJGaVsbgRb_YvKpA-5" value="" style="edgeStyle=orthogonalEdgeStyle;rounded=0;orthogonalLoop=1;jettySize=auto;html=1;" edge="1" parent="1" source="ZeDddJGaVsbgRb_YvKpA-2" target="ZeDddJGaVsbgRb_YvKpA-4">
          <mxGeometry relative="1" as="geometry" />
        </mxCell>
        <mxCell id="ZeDddJGaVsbgRb_YvKpA-2" value="新建计费账单" style="whiteSpace=wrap;html=1;" vertex="1" parent="1">
          <mxGeometry x="330" y="440" width="120" height="60" as="geometry" />
        </mxCell>
        <mxCell id="ZeDddJGaVsbgRb_YvKpA-7" value="" style="edgeStyle=orthogonalEdgeStyle;rounded=0;orthogonalLoop=1;jettySize=auto;html=1;" edge="1" parent="1" source="ZeDddJGaVsbgRb_YvKpA-4" target="ZeDddJGaVsbgRb_YvKpA-6">
          <mxGeometry relative="1" as="geometry" />
        </mxCell>
        <mxCell id="ZeDddJGaVsbgRb_YvKpA-4" value="发起计费" style="whiteSpace=wrap;html=1;" vertex="1" parent="1">
          <mxGeometry x="530" y="440" width="120" height="60" as="geometry" />
        </mxCell>
        <mxCell id="ZeDddJGaVsbgRb_YvKpA-9" value="" style="edgeStyle=orthogonalEdgeStyle;rounded=0;orthogonalLoop=1;jettySize=auto;html=1;" edge="1" parent="1" source="ZeDddJGaVsbgRb_YvKpA-6" target="ZeDddJGaVsbgRb_YvKpA-8">
          <mxGeometry relative="1" as="geometry" />
        </mxCell>
        <mxCell id="ZeDddJGaVsbgRb_YvKpA-6" value="获取主单业务线、运输方式、供应商、实际签收时间" style="whiteSpace=wrap;html=1;" vertex="1" parent="1">
          <mxGeometry x="730" y="440" width="120" height="60" as="geometry" />
        </mxCell>
        <mxCell id="ZeDddJGaVsbgRb_YvKpA-8" value="获取未计费的派车单/运单" style="whiteSpace=wrap;html=1;" vertex="1" parent="1">
          <mxGeometry x="930" y="440" width="120" height="60" as="geometry" />
        </mxCell>
      </root>
    </mxGraphModel>
  </diagram>
</mxfile>
